<svg width="20" height="20" viewBox="0 0 20 20" fill="none" xmlns="http://www.w3.org/2000/svg">
<g id="fluent:phone-16-filled">
<path id="Vector" d="M5 3.4375C5 2.23 5.98 1.25 7.1875 1.25H12.8125C14.02 1.25 15 2.23 15 3.4375V16.5625C15 17.1427 14.7695 17.6991 14.3593 18.1093C13.9491 18.5195 13.3927 18.75 12.8125 18.75H7.1875C6.60734 18.75 6.05094 18.5195 5.6407 18.1093C5.23047 17.6991 5 17.1427 5 16.5625V3.4375ZM8.75 15C8.58424 15 8.42527 15.0658 8.30806 15.1831C8.19085 15.3003 8.125 15.4592 8.125 15.625C8.125 15.7908 8.19085 15.9497 8.30806 16.0669C8.42527 16.1842 8.58424 16.25 8.75 16.25H11.25C11.4158 16.25 11.5747 16.1842 11.6919 16.0669C11.8092 15.9497 11.875 15.7908 11.875 15.625C11.875 15.4592 11.8092 15.3003 11.6919 15.1831C11.5747 15.0658 11.4158 15 11.25 15H8.75Z" fill="black"/>
</g>
</svg>
