<svg width="20" height="20" viewBox="0 0 20 20" fill="none" xmlns="http://www.w3.org/2000/svg">
<g id="majesticons:search-line" clip-path="url(#clip0_1095_3564)">
<path id="Vector" d="M18.3337 18.3334L14.115 14.1148M14.115 14.1148C14.7921 13.4376 15.3292 12.6338 15.6957 11.7491C16.0621 10.8644 16.2507 9.91621 16.2507 8.95862C16.2507 8.00104 16.0621 7.05283 15.6957 6.16814C15.3292 5.28345 14.7921 4.4796 14.115 3.80249C13.4379 3.12538 12.634 2.58826 11.7493 2.22181C10.8647 1.85536 9.91645 1.66675 8.95887 1.66675C8.00129 1.66675 7.05308 1.85536 6.16839 2.22181C5.2837 2.58826 4.47985 3.12538 3.80273 3.80249C2.43524 5.16998 1.66699 7.0247 1.66699 8.95862C1.66699 10.8925 2.43524 12.7473 3.80273 14.1148C5.17023 15.4823 7.02494 16.2505 8.95887 16.2505C10.8928 16.2505 12.7475 15.4823 14.115 14.1148Z" stroke="white" stroke-width="2" stroke-linecap="round" stroke-linejoin="round"/>
</g>
<defs>
<clipPath id="clip0_1095_3564">
<rect width="20" height="20" fill="white"/>
</clipPath>
</defs>
</svg>
