<svg width="28" height="28" viewBox="0 0 28 28" fill="none" xmlns="http://www.w3.org/2000/svg">
<g id="Group 35">
<path id="SF Symbol / chevron.forward" d="M20 14.5C19.9882 14.0857 19.8355 13.7306 19.5181 13.4109L10.3741 4.40248C10.1038 4.14205 9.78648 4 9.39863 4C8.61117 4 8 4.61556 8 5.40868C8 5.78749 8.15279 6.14262 8.42311 6.41488L16.6503 14.5L8.42311 22.5851C8.15279 22.8574 8 23.2007 8 23.5913C8 24.3844 8.61116 25 9.39863 25C9.77473 25 10.1038 24.8579 10.3741 24.5975L19.5181 15.5772C19.8472 15.2694 20 14.9143 20 14.5Z" fill="white"/>
</g>
</svg>
