<svg width="28" height="28" viewBox="0 0 28 28" fill="none" xmlns="http://www.w3.org/2000/svg">
<g id="Group 34">
<path id="SF Symbol / chevron.forward" d="M8 13.5C8.01175 13.9143 8.16454 14.2694 8.48188 14.5891L17.6259 23.5975C17.8962 23.8579 18.2135 24 18.6014 24C19.3888 24 20 23.3844 20 22.5913C20 22.2125 19.8472 21.8574 19.5769 21.5851L11.3497 13.5L19.5769 5.41488C19.8472 5.14262 20 4.79933 20 4.40868C20 3.61556 19.3888 3 18.6014 3C18.2253 3 17.8962 3.14205 17.6259 3.40248L8.48188 12.4228C8.15279 12.7306 8 13.0857 8 13.5Z" fill="white"/>
</g>
</svg>
