<svg width="19" height="19" viewBox="0 0 19 19" fill="none" xmlns="http://www.w3.org/2000/svg">
<g id="solar:phone-bold">
<path id="Vector" d="M12.464 11.9815L12.0848 12.3545C12.0848 12.3545 11.1823 13.2407 8.71984 10.8211C6.25735 8.40156 7.15985 7.51543 7.15985 7.51543L7.39818 7.2799C7.98734 6.70178 8.04317 5.77283 7.52901 5.09424L6.47902 3.70822C5.84235 2.86822 4.6132 2.75704 3.88403 3.47352L2.57571 4.75823C2.21488 5.114 1.97321 5.57353 2.00238 6.08413C2.07738 7.39108 2.67571 10.2018 6.01235 13.4811C9.5515 16.9581 12.8723 17.0964 14.2298 16.9713C14.6598 16.9317 15.0331 16.716 15.334 16.4195L16.5173 15.2567C17.3173 14.4718 17.0923 13.1254 16.069 12.5761L14.4773 11.7204C13.8056 11.3597 12.989 11.4659 12.464 11.9815Z" fill="white"/>
</g>
</svg>
