<svg width="18" height="18" viewBox="0 0 18 18" fill="none" xmlns="http://www.w3.org/2000/svg">
<g id="ic:round-close">
<path id="Vector" d="M15.6769 9.00501C15.677 8.90678 15.6577 8.8095 15.6201 8.71873C15.5826 8.62796 15.5275 8.54549 15.4581 8.47603C15.3886 8.40658 15.3061 8.3515 15.2154 8.31396C15.1246 8.27642 15.0273 8.25714 14.9291 8.25724L9.74777 8.25194L9.74777 3.06531C9.74777 2.96711 9.72842 2.86988 9.69085 2.77915C9.65327 2.68843 9.59819 2.606 9.52875 2.53656C9.45931 2.46713 9.37688 2.41205 9.28616 2.37447C9.19543 2.33689 9.0982 2.31755 9 2.31755C8.9018 2.31755 8.80457 2.33689 8.71384 2.37447C8.62312 2.41205 8.54069 2.46713 8.47125 2.53656C8.40181 2.606 8.34673 2.68843 8.30915 2.77915C8.27158 2.86988 8.25223 2.96711 8.25223 3.06531L8.25223 8.25194L3.06561 8.25194C2.96741 8.25194 2.87017 8.27128 2.77945 8.30886C2.68873 8.34644 2.60629 8.40152 2.53686 8.47096C2.46742 8.54039 2.41234 8.62282 2.37476 8.71355C2.33718 8.80427 2.31784 8.90151 2.31784 8.9997C2.31784 9.0979 2.33718 9.19514 2.37476 9.28586C2.41234 9.37659 2.46742 9.45902 2.53686 9.52846C2.60629 9.59789 2.68873 9.65297 2.77945 9.69055C2.87017 9.72813 2.96741 9.74747 3.06561 9.74747L8.25224 9.74747L8.25224 14.9341C8.25223 15.0323 8.27158 15.1295 8.30916 15.2203C8.34673 15.311 8.40181 15.3934 8.47125 15.4628C8.54069 15.5323 8.62312 15.5874 8.71384 15.6249C8.80457 15.6625 8.9018 15.6819 9 15.6819C9.0982 15.6819 9.19543 15.6625 9.28616 15.6249C9.37688 15.5874 9.45931 15.5323 9.52875 15.4628C9.59819 15.3934 9.65327 15.311 9.69084 15.2203C9.72842 15.1295 9.74777 15.0323 9.74776 14.9341L9.74776 9.74747L14.9344 9.74747C15.3374 9.74747 15.6769 9.40806 15.6769 9.00501Z" fill="#202020"/>
</g>
</svg>
